<svg xmlns="http://www.w3.org/2000/svg" width="225" height="100" fill="none" viewBox="0 0 225 100">
  <path fill="#F67669" d="M.04 48.677a26.457 26.457 0 0 0 3.476 11.35C7.74 67.38 14.986 72.703 22.79 75.866c9.75 3.953 20.618 4.075 30.965 3.193 9.61-.818 19.123-2.716 28.768-3.107a202.32 202.32 0 0 1 22.366.529c14.434 1.015 28.808 2.898 43.089 5.18a497.62 497.62 0 0 1 11.578 1.969c.364.032.724.098 1.076.198.069.028.182.006.246.046.116.073-.47-.184-.115.107.496.515.938 1.078 1.319 1.681l5.274 6.725c1.513 1.928 2.916 4.271 4.871 5.791a8.886 8.886 0 0 0 9.764.674 9.703 9.703 0 0 0 3.631-4.086 35.237 35.237 0 0 1 4.317-6.174c6.275-7.252 14.996-11.712 22.29-17.814a39.446 39.446 0 0 0 8.915-10.096 28.362 28.362 0 0 0 3.683-11.337c.874-8.11-1.638-16.38-5.863-23.279a46.782 46.782 0 0 0-19.055-17.28c-8.828-4.455-18.597-6.625-28.388-7.707C161.124-.07 150.607-.066 140.161.05c-11.725.129-23.428.64-35.109 1.532a541.297 541.297 0 0 0-34.955 3.825c-11.136 1.586-22.408 3.24-33.309 6.046-9.63 2.48-19.232 6.355-26.423 13.377C3.972 31.073-.475 39.617.041 48.677Z"/>
  <path fill="#fff" d="M53.868 51.257a3.477 3.477 0 0 1-2.484-1.212 3.41 3.41 0 0 1-.786-2.63l.247-1.93a2.285 2.285 0 0 0-.757-2.007l-1.463-1.295a3.407 3.407 0 0 1-1.01-1.583 3.38 3.38 0 0 1-.014-1.873 3.406 3.406 0 0 1 .986-1.598 3.455 3.455 0 0 1 1.69-.84l1.928-.364a2.304 2.304 0 0 0 1.692-1.331l.792-1.781a3.419 3.419 0 0 1 1.208-1.44 3.465 3.465 0 0 1 4.96 1.175l.945 1.705a2.335 2.335 0 0 0 1.803 1.184l1.952.195a3.46 3.46 0 0 1 1.757.693c.508.389.897.91 1.122 1.507a3.381 3.381 0 0 1-.718 3.53l-1.345 1.417a2.291 2.291 0 0 0-.578 2.062l.415 1.903a3.38 3.38 0 0 1-.123 1.868 3.411 3.411 0 0 1-1.1 1.523 3.471 3.471 0 0 1-3.61.415l-1.776-.83a2.334 2.334 0 0 0-2.16.093l-1.696.979c-.568.329-1.22.49-1.877.465Zm27.648-.796a3.493 3.493 0 0 1-2.319-1.026 3.503 3.503 0 0 1-.934-2.953l.227-1.77a2.323 2.323 0 0 0-.77-2.044l-1.358-1.202a3.51 3.51 0 0 1-.934-1.237 3.478 3.478 0 0 1-.306-1.515c.03-.772.323-1.511.832-2.096a3.448 3.448 0 0 1 1.97-1.125l1.907-.359a2.358 2.358 0 0 0 1.724-1.358l.71-1.598a3.575 3.575 0 0 1 1.209-1.519 3.623 3.623 0 0 1 1.83-.672 3.45 3.45 0 0 1 1.86.423 3.41 3.41 0 0 1 1.342 1.342l.933 1.686a2.38 2.38 0 0 0 1.838 1.206l1.81.18a3.57 3.57 0 0 1 1.49.458c.456.26.848.618 1.147 1.048a3.387 3.387 0 0 1-.358 4.237l-1.329 1.4a2.337 2.337 0 0 0-.589 2.1l.383 1.757a3.49 3.49 0 0 1-.624 2.95 3.437 3.437 0 0 1-1.917 1.218 3.464 3.464 0 0 1-2.265-.238l-1.757-.82a2.384 2.384 0 0 0-2.198.095l-1.677.967c-.568.33-1.22.49-1.877.465Zm27.72-.116a3.475 3.475 0 0 1-2.484-1.212 3.408 3.408 0 0 1-.786-2.63l.247-1.93a2.285 2.285 0 0 0-.757-2.006l-1.463-1.296a3.41 3.41 0 0 1-1.01-1.583 3.378 3.378 0 0 1-.014-1.873 3.413 3.413 0 0 1 .986-1.597 3.457 3.457 0 0 1 1.689-.841l1.929-.363a2.34 2.34 0 0 0 1.012-.459c.295-.232.528-.532.68-.873l.792-1.78a3.413 3.413 0 0 1 1.208-1.44 3.462 3.462 0 0 1 3.631-.157c.56.312 1.021.773 1.33 1.331l.944 1.705a2.31 2.31 0 0 0 1.803 1.183l1.952.196a3.465 3.465 0 0 1 1.757.693c.508.389.897.91 1.122 1.507.225.596.277 1.243.15 1.867a3.404 3.404 0 0 1-.868 1.664l-1.345 1.416a2.294 2.294 0 0 0-.578 2.063l.415 1.902a3.38 3.38 0 0 1-.123 1.868 3.416 3.416 0 0 1-1.099 1.523 3.463 3.463 0 0 1-3.611.415l-1.776-.829a2.332 2.332 0 0 0-2.159.092l-1.697.98a3.48 3.48 0 0 1-1.877.464Z"/>
  <path fill="#000" d="M136.198 49.62a3.462 3.462 0 0 1-2.484-1.212 3.4 3.4 0 0 1-.786-2.63l.247-1.93a2.285 2.285 0 0 0-.756-2.006l-1.464-1.295a3.387 3.387 0 0 1-.037-5.053 3.456 3.456 0 0 1 1.689-.842l1.929-.363a2.324 2.324 0 0 0 1.691-1.331l.792-1.781a3.42 3.42 0 0 1 1.208-1.44 3.468 3.468 0 0 1 3.632-.157 3.43 3.43 0 0 1 1.329 1.332l.944 1.705a2.336 2.336 0 0 0 1.803 1.184l1.953.195a3.463 3.463 0 0 1 1.756.692c.509.39.897.911 1.122 1.508.225.596.277 1.242.15 1.866a3.402 3.402 0 0 1-.867 1.664l-1.345 1.417a2.284 2.284 0 0 0-.578 2.062l.414 1.902c.136.622.094 1.27-.122 1.869a3.41 3.41 0 0 1-1.1 1.522 3.471 3.471 0 0 1-3.61.415l-1.776-.828a2.338 2.338 0 0 0-2.16.091l-1.697.98a3.471 3.471 0 0 1-1.877.464Zm26.963-.724a3.48 3.48 0 0 1-1.37-.349 3.441 3.441 0 0 1-1.785-2.097 3.383 3.383 0 0 1-.115-1.397l.247-1.93a2.285 2.285 0 0 0-.757-2.006l-1.463-1.295a3.409 3.409 0 0 1-1.01-1.583 3.378 3.378 0 0 1-.014-1.873 3.412 3.412 0 0 1 .986-1.597 3.455 3.455 0 0 1 1.69-.841l1.928-.363a2.33 2.33 0 0 0 1.012-.46 2.3 2.3 0 0 0 .68-.872l.792-1.781a3.413 3.413 0 0 1 1.208-1.44 3.461 3.461 0 0 1 3.631-.156c.56.312 1.021.773 1.33 1.33l.944 1.706a2.3 2.3 0 0 0 .754.812c.314.207.674.334 1.049.372l1.952.195a3.464 3.464 0 0 1 1.757.693c.508.389.897.91 1.122 1.507.225.596.277 1.243.15 1.867a3.404 3.404 0 0 1-.868 1.664l-1.345 1.416a2.294 2.294 0 0 0-.578 2.063l.415 1.902a3.38 3.38 0 0 1-.123 1.868 3.416 3.416 0 0 1-1.099 1.523 3.463 3.463 0 0 1-3.611.415l-1.776-.83a2.335 2.335 0 0 0-2.159.093l-1.697.979a3.481 3.481 0 0 1-1.877.465Z" opacity=".2"/>
</svg>
