<svg xmlns="http://www.w3.org/2000/svg" width="25" height="22" fill="none" viewBox="0 0 25 22">
  <path fill="#387E96" d="M24.22 7.336c-.277-.66-.738-1.135-1.333-1.374l-.008-.003a2.328 2.328 0 0 0-.85-.16h-.032c-1.362.02-2.753 1.178-3.46 2.88-.518 1.246-.578 2.585-.159 3.583.277.66.74 1.136 1.337 1.375l.006.003c.271.106.56.16.85.16 1.376 0 2.78-1.158 3.5-2.883.513-1.244.57-2.582.15-3.58Zm-5.442 7.344c-.785-.472-1.528-.918-2.013-1.72-1.338-2.22-2.146-3.56-4.265-3.56-2.119 0-2.93 1.34-4.27 3.56-.486.803-1.23 1.25-2.019 1.724-.903.543-1.837 1.104-2.24 2.208a3.347 3.347 0 0 0-.232 1.25c0 1.798 1.4 3.26 3.12 3.26.888 0 1.832-.307 2.832-.632.961-.313 1.955-.637 2.814-.637s1.85.324 2.808.637c.997.323 1.937.63 2.828.63 1.717 0 3.115-1.462 3.115-3.26a3.351 3.351 0 0 0-.238-1.25c-.403-1.105-1.337-1.666-2.24-2.21ZM7.199 7.642c.595.746 1.35 1.157 2.126 1.157.106 0 .212-.008.317-.023 1.619-.238 2.627-2.214 2.296-4.5-.138-.963-.508-1.858-1.038-2.522C10.305 1.009 9.55.598 8.774.598c-.106 0-.212.008-.317.024-1.619.238-2.627 2.213-2.296 4.5.138.96.508 1.855 1.038 2.52Zm8.159 1.134c.105.015.21.023.317.023.776 0 1.53-.41 2.126-1.157.53-.665.898-1.56 1.038-2.52.33-2.287-.678-4.262-2.297-4.501a2.143 2.143 0 0 0-.316-.024c-.776.001-1.532.412-2.126 1.157-.53.664-.9 1.56-1.038 2.522-.331 2.286.678 4.262 2.296 4.5ZM5.278 13.64l.007-.003c.597-.24 1.058-.714 1.335-1.374.419-1 .36-2.338-.158-3.583-.716-1.723-2.12-2.88-3.495-2.88-.29 0-.579.054-.85.16l-.007.002c-.595.238-1.056.715-1.333 1.374-.419 1-.36 2.338.158 3.583C1.65 12.643 3.056 13.8 4.43 13.8c.29 0 .578-.054.848-.16Z"/>
</svg>
