<svg xmlns="http://www.w3.org/2000/svg" width="17" height="16" fill="none" viewBox="0 0 17 16">
  <path fill="#fff" fill-rule="evenodd" d="M7.58 1.915a.75.75 0 0 1 .67-.415A2.75 2.75 0 0 1 11 4.25V5h3.118a1.743 1.743 0 0 1 1.732 1.97l-.75 5.999a1.75 1.75 0 0 1-1.728 1.531H2.75a1.25 1.25 0 0 1-1.25-1.25v-5.5A1.25 1.25 0 0 1 2.75 6.5h2.536L7.58 1.915ZM5 8H3v5h2V8Zm1.5 5h6.866a.25.25 0 0 0 .246-.219l.75-5.999v-.006a.243.243 0 0 0-.241-.276H10.25a.75.75 0 0 1-.75-.75v-1.5a1.25 1.25 0 0 0-.824-1.175L6.5 7.427V13Z" clip-rule="evenodd"/>
</svg>
