<svg xmlns="http://www.w3.org/2000/svg" width="17" height="16" fill="none" viewBox="0 0 17 16">
  <path fill="#fff" fill-rule="evenodd" d="M3 3v5h2V3H3Zm3.5 0v5.573l2.176 4.352A1.25 1.25 0 0 0 9.5 11.75v-1.5a.75.75 0 0 1 .75-.75h3.871a.244.244 0 0 0 .242-.276l-.001-.006-.75-6A.25.25 0 0 0 13.366 3H6.5ZM5.286 9.5H2.75A1.25 1.25 0 0 1 1.5 8.25v-5.5A1.25 1.25 0 0 1 2.75 1.5h10.622A1.75 1.75 0 0 1 15.1 3.031v.001l.75 5.997A1.744 1.744 0 0 1 14.118 11H11v.75a2.75 2.75 0 0 1-2.75 2.75.75.75 0 0 1-.67-.415L5.285 9.5Z" clip-rule="evenodd"/>
</svg>
