<svg xmlns="http://www.w3.org/2000/svg" width="14" height="16" fill="none" viewBox="0 0 14 16">
  <path fill="#00BFA6" d="M6.461 8.17c-2.293 0-4.158-1.753-4.158-3.91 0-2.156 1.865-3.91 4.158-3.91s4.158 1.754 4.158 3.91c0 2.157-1.865 3.91-4.158 3.91Zm0-6.832C4.784 1.338 3.42 2.65 3.42 4.26c0 1.612 1.365 2.923 3.042 2.923 1.677 0 3.042-1.311 3.042-2.923 0-1.61-1.365-2.922-3.042-2.922Z"/>
  <path fill="#00BFA6" d="M6.47 8.077c-2.298 0-4.167-1.811-4.167-4.038C2.303 1.812 4.173 0 6.47 0c2.298 0 4.168 1.812 4.168 4.039 0 2.227-1.87 4.038-4.168 4.038Zm0-7.057c-1.68 0-3.048 1.354-3.048 3.019 0 1.664 1.367 3.018 3.048 3.018s3.05-1.354 3.05-3.018c0-1.665-1.368-3.019-3.049-3.019Z"/>
  <path fill="#fff" d="M10.518 16H2.625a2.761 2.761 0 0 1-1.855-.702A2.297 2.297 0 0 1 0 13.605V6.542c0-.435.19-.851.527-1.159a1.89 1.89 0 0 1 1.27-.48h9.549c.476 0 .933.173 1.27.48.337.308.526.724.527 1.16v7.062c0 .635-.278 1.244-.77 1.693a2.761 2.761 0 0 1-1.855.702Z"/>
  <path fill="#fff" d="M8.066 9.575c0-.25-.073-.495-.21-.71a1.482 1.482 0 0 0-.576-.515 1.656 1.656 0 0 0-1.555.027c-.233.13-.424.315-.553.535a1.304 1.304 0 0 0 .06 1.417c.147.21.353.381.597.495v2.195h1.398v-2.195c.252-.118.464-.296.612-.517.148-.22.227-.474.227-.732Z"/>
  <path fill="#2F2E41" d="M8.066 9.575c0-.25-.073-.495-.21-.71a1.482 1.482 0 0 0-.576-.515 1.656 1.656 0 0 0-1.555.027c-.233.13-.424.315-.553.535a1.304 1.304 0 0 0 .06 1.417c.147.21.353.381.597.495v2.195h1.398v-2.195c.252-.118.464-.296.612-.517.148-.22.227-.474.227-.732Z"/>
</svg>
