<svg xmlns="http://www.w3.org/2000/svg" width="168" height="24" fill="none" viewBox="0 0 168 24">
  <path fill="#fff" d="M40.514 23.24c-1.12 0-2.104-.208-2.952-.624a4.804 4.804 0 0 1-1.944-1.8c-.464-.784-.696-1.704-.696-2.76v-3.312c0-1.072.232-1.992.696-2.76a4.643 4.643 0 0 1 1.944-1.776c.848-.432 1.832-.648 2.952-.648 1.664 0 2.992.432 3.984 1.296.992.848 1.512 2.008 1.56 3.48h-3c-.048-.688-.296-1.216-.744-1.584-.432-.384-1.032-.576-1.8-.576-.8 0-1.432.224-1.896.672-.464.432-.696 1.056-.696 1.872v3.336c0 .816.232 1.448.696 1.896.464.448 1.096.672 1.896.672.768 0 1.368-.184 1.8-.552.448-.384.696-.92.744-1.608h3c-.048 1.472-.568 2.64-1.56 3.504-.992.848-2.32 1.272-3.984 1.272Zm9.039-.24V5.48h3v9.504h2.088L57.857 9.8h3.36l-3.984 6.384L61.289 23h-3.432l-3.216-5.472h-2.088V23h-3Zm19.694.24c-1.12 0-2.096-.216-2.928-.648a4.804 4.804 0 0 1-1.944-1.8c-.448-.784-.672-1.696-.672-2.736v-3.312c0-1.04.224-1.944.672-2.712a4.753 4.753 0 0 1 1.944-1.824c.832-.432 1.808-.648 2.928-.648 1.104 0 2.064.216 2.88.648a4.596 4.596 0 0 1 1.92 1.824c.464.768.696 1.672.696 2.712v2.376h-8.136v.936c0 .928.224 1.632.672 2.112.448.464 1.112.696 1.992.696.672 0 1.216-.112 1.632-.336.416-.24.68-.584.792-1.032h2.952c-.224 1.136-.832 2.048-1.824 2.736-.976.672-2.168 1.008-3.576 1.008Zm2.592-7.8v-.72c0-.912-.216-1.608-.648-2.088-.432-.496-1.08-.744-1.944-.744-.864 0-1.52.248-1.968.744-.448.496-.672 1.2-.672 2.112v.504l5.448-.048-.216.24ZM85.054 23c-1.264 0-2.256-.352-2.976-1.056-.704-.704-1.056-1.672-1.056-2.904v-6.528h-3.576V9.8h3.576V6.08h3.024V9.8h5.064v2.712h-5.064v6.528c0 .832.408 1.248 1.224 1.248h3.6V23h-3.816Zm12.95.24c-.687 0-1.24-.2-1.655-.6-.4-.4-.6-.944-.6-1.632s.2-1.232.6-1.632c.416-.416.968-.624 1.656-.624s1.232.208 1.632.624c.416.4.624.944.624 1.632s-.208 1.232-.624 1.632c-.4.4-.944.6-1.632.6Zm13.887-.024c-1.008 0-1.888-.16-2.64-.48-.752-.32-1.344-.76-1.776-1.32-.416-.576-.64-1.248-.672-2.016h3c.032.416.232.752.6 1.008.384.256.88.384 1.488.384h1.056c.736 0 1.288-.144 1.656-.432.368-.288.552-.68.552-1.176 0-.464-.168-.824-.504-1.08-.32-.272-.824-.448-1.512-.528l-1.632-.24c-1.504-.208-2.608-.608-3.312-1.2-.704-.592-1.056-1.48-1.056-2.664 0-1.232.416-2.184 1.248-2.856.832-.688 2.056-1.032 3.672-1.032h.912c1.472 0 2.648.328 3.528.984.88.656 1.352 1.536 1.416 2.64h-3c-.048-.352-.248-.64-.6-.864-.336-.224-.784-.336-1.344-.336h-.912c-.688 0-1.192.128-1.512.384-.304.24-.456.6-.456 1.08 0 .448.136.784.408 1.008.272.208.712.36 1.32.456l1.704.24c1.568.224 2.72.648 3.456 1.272.752.608 1.128 1.512 1.128 2.712 0 1.28-.44 2.28-1.32 3-.864.704-2.144 1.056-3.84 1.056h-1.056Zm14.919.024c-1.12 0-2.096-.216-2.928-.648a4.804 4.804 0 0 1-1.944-1.8c-.448-.784-.672-1.696-.672-2.736v-3.312c0-1.04.224-1.944.672-2.712a4.753 4.753 0 0 1 1.944-1.824c.832-.432 1.808-.648 2.928-.648 1.104 0 2.064.216 2.88.648a4.596 4.596 0 0 1 1.92 1.824c.464.768.696 1.672.696 2.712v2.376h-8.136v.936c0 .928.224 1.632.672 2.112.448.464 1.112.696 1.992.696.672 0 1.216-.112 1.632-.336.416-.24.68-.584.792-1.032h2.952c-.224 1.136-.832 2.048-1.824 2.736-.976.672-2.168 1.008-3.576 1.008Zm2.592-7.8v-.72c0-.912-.216-1.608-.648-2.088-.432-.496-1.08-.744-1.944-.744-.864 0-1.52.248-1.968.744-.448.496-.672 1.2-.672 2.112v.504l5.448-.048-.216.24Zm11.847 7.8c-1.12 0-2.104-.208-2.952-.624a4.804 4.804 0 0 1-1.944-1.8c-.464-.784-.696-1.704-.696-2.76v-3.312c0-1.072.232-1.992.696-2.76a4.643 4.643 0 0 1 1.944-1.776c.848-.432 1.832-.648 2.952-.648 1.664 0 2.992.432 3.984 1.296.992.848 1.512 2.008 1.56 3.48h-3c-.048-.688-.296-1.216-.744-1.584-.432-.384-1.032-.576-1.8-.576-.8 0-1.432.224-1.896.672-.464.432-.696 1.056-.696 1.872v3.336c0 .816.232 1.448.696 1.896.464.448 1.096.672 1.896.672.768 0 1.368-.184 1.8-.552.448-.384.696-.92.744-1.608h3c-.048 1.472-.568 2.64-1.56 3.504-.992.848-2.32 1.272-3.984 1.272Zm15.758-.24c-1.264 0-2.256-.352-2.976-1.056-.704-.704-1.056-1.672-1.056-2.904v-6.528h-3.576V9.8h3.576V6.08h3.024V9.8h5.064v2.712h-5.064v6.528c0 .832.408 1.248 1.224 1.248h3.6V23h-3.816Z"/>
  <path fill="#00BFA6" d="M24.461 15.17c-2.293 0-4.158-1.754-4.158-3.91s1.865-3.91 4.158-3.91 4.158 1.754 4.158 3.91-1.865 3.91-4.158 3.91Zm0-6.832c-1.677 0-3.042 1.311-3.042 2.922 0 1.612 1.365 2.923 3.042 2.923 1.677 0 3.042-1.311 3.042-2.923 0-1.61-1.365-2.922-3.042-2.922Z"/>
  <path fill="#00BFA6" d="M24.47 15.077c-2.298 0-4.167-1.811-4.167-4.038C20.303 8.812 22.173 7 24.47 7c2.298 0 4.168 1.812 4.168 4.039 0 2.227-1.87 4.038-4.168 4.038Zm0-7.057c-1.68 0-3.048 1.354-3.048 3.019 0 1.664 1.367 3.018 3.048 3.018s3.049-1.354 3.049-3.018c0-1.665-1.368-3.019-3.049-3.019Z"/>
  <path fill="#fff" d="M28.518 23h-7.893a2.761 2.761 0 0 1-1.855-.702 2.296 2.296 0 0 1-.77-1.693v-7.063c0-.435.19-.851.527-1.159a1.89 1.89 0 0 1 1.27-.48h9.549c.476 0 .933.173 1.27.48.337.308.526.724.527 1.16v7.062c0 .635-.278 1.244-.77 1.693a2.761 2.761 0 0 1-1.855.702Z"/>
  <path fill="#fff" d="M26.066 16.575c0-.25-.073-.494-.21-.71a1.48 1.48 0 0 0-.576-.515 1.656 1.656 0 0 0-1.555.027 1.47 1.47 0 0 0-.553.534 1.304 1.304 0 0 0 .06 1.418c.147.21.353.381.597.495v2.195h1.398v-2.195c.252-.118.464-.297.612-.517.148-.22.227-.474.227-.732Z"/>
  <path fill="#2F2E41" d="M26.066 16.575c0-.25-.073-.494-.21-.71a1.48 1.48 0 0 0-.576-.515 1.656 1.656 0 0 0-1.555.027 1.47 1.47 0 0 0-.553.534 1.304 1.304 0 0 0 .06 1.418c.147.21.353.381.597.495v2.195h1.398v-2.195c.252-.118.464-.297.612-.517.148-.22.227-.474.227-.732Z"/>
  <path fill="#fff" d="M3.656 23V5.48H9.2c1.168 0 2.177.216 3.025.648.864.432 1.536 1.04 2.016 1.824.48.768.72 1.68.72 2.736 0 1.152-.296 2.168-.889 3.048a4.69 4.69 0 0 1-2.351 1.872L15.2 23h-3.36l-3.049-6.96H6.656V23h-3Zm3-9.6H9.2c.849 0 1.513-.232 1.993-.696.48-.464.72-1.104.72-1.92 0-.832-.24-1.48-.72-1.944-.48-.48-1.144-.72-1.993-.72H6.656v5.28Z"/>
</svg>
