<svg xmlns="http://www.w3.org/2000/svg" width="51" height="62" fill="none" viewBox="0 0 51 62">
  <path fill="#00BFA6" d="M25.072 31.661c-8.897 0-16.136-6.797-16.136-15.152S16.175 1.357 25.072 1.357c8.896 0 16.135 6.797 16.135 15.152S33.968 31.66 25.072 31.66Zm0-26.476c-6.51 0-11.805 5.08-11.805 11.324s5.296 11.324 11.805 11.324c6.509 0 11.804-5.08 11.804-11.324S31.581 5.185 25.072 5.185Z"/>
  <path fill="#00BFA6" d="M25.107 31.3c-8.916 0-16.17-7.02-16.17-15.65S16.19 0 25.106 0c8.917 0 16.171 7.02 16.171 15.65S34.024 31.3 25.108 31.3Zm0-27.346c-6.523 0-11.83 5.247-11.83 11.696s5.307 11.696 11.83 11.696c6.524 0 11.83-5.247 11.83-11.696 0-6.45-5.306-11.696-11.83-11.696Z"/>
  <path fill="#fff" d="M40.813 62H10.187c-2.701-.003-5.29-.981-7.2-2.721C1.077 57.539.003 55.18 0 52.719V25.352c.002-1.685.738-3.3 2.045-4.491 1.307-1.191 3.08-1.861 4.93-1.863h37.05c1.85.002 3.623.672 4.93 1.863 1.308 1.191 2.043 2.806 2.045 4.49v27.37c-.003 2.46-1.077 4.819-2.987 6.559-1.91 1.74-4.499 2.718-7.2 2.721Z"/>
  <path fill="#2F2E41" d="M31.298 37.103a5.066 5.066 0 0 0-.816-2.75 5.747 5.747 0 0 0-2.232-1.996 6.434 6.434 0 0 0-3.033-.695 6.403 6.403 0 0 0-3.002.799 5.688 5.688 0 0 0-2.146 2.071 5.05 5.05 0 0 0-.702 2.776 5.09 5.09 0 0 0 .935 2.719 5.808 5.808 0 0 0 2.316 1.915v8.507h5.425v-8.507a5.788 5.788 0 0 0 2.377-2.002 5.078 5.078 0 0 0 .878-2.837Z"/>
  <path fill="#2F2E41" d="M31.298 37.103a5.066 5.066 0 0 0-.816-2.75 5.747 5.747 0 0 0-2.232-1.996 6.434 6.434 0 0 0-3.033-.695 6.403 6.403 0 0 0-3.002.799 5.688 5.688 0 0 0-2.146 2.071 5.05 5.05 0 0 0-.702 2.776 5.09 5.09 0 0 0 .935 2.719 5.808 5.808 0 0 0 2.316 1.915v8.507h5.425v-8.507a5.788 5.788 0 0 0 2.377-2.002 5.078 5.078 0 0 0 .878-2.837Z"/>
</svg>
