<svg xmlns="http://www.w3.org/2000/svg" width="33" height="59" fill="none" viewBox="0 0 33 59">
  <path fill="#EE24FF" d="M11.29 58.635c1.876 0 3.397-1.443 3.397-3.222 0-1.78-1.521-3.223-3.397-3.223s-3.397 1.443-3.397 3.223c0 1.78 1.52 3.222 3.397 3.222ZM17.716.095C13.525-.353 9.318.796 6.02 3.291 2.722 5.785.604 9.42.131 13.397c-.984 8.28 3.614 26.26 11.996 33.704 3.947-14.26 17.778-22.72 19.608-30.322 1.956-8.124-5.292-15.75-14.02-16.684Z"/>
  <path fill="#fff" d="M16.079 18.03c2.864 0 5.186-2.202 5.186-4.92 0-2.717-2.322-4.92-5.186-4.92s-5.186 2.203-5.186 4.92c0 2.718 2.322 4.92 5.186 4.92Z"/>
</svg>
