<svg xmlns="http://www.w3.org/2000/svg" width="350" height="238" fill="none" viewBox="0 0 350 238">
  <g clip-path="url(#a)">
    <path fill="#F2F2F2" d="M283.25 151.438c.313.028.627-.037.9-.184.273-.148.492-.371.627-.641a1.392 1.392 0 0 0-.294-1.643l-.085-.401.046-.093a3.988 3.988 0 0 1 1.607-1.667 4.293 4.293 0 0 1 4.553.217 3.924 3.924 0 0 1 1.422 1.812c1.101 2.889 2.541 5.798 2.783 8.812a11 11 0 0 1-.408 3.959c3.208-5.901 5.043-12.387 5.378-19.019a42.456 42.456 0 0 0-.048-4.994 44.183 44.183 0 0 0-.472-4.069c-1.206-7.321-4.225-14.267-8.809-20.266-2.296-1.324-4.109-3.284-5.195-5.616a9.14 9.14 0 0 1-.784-2.636 12.753 12.753 0 0 0 1.051.129l.031.003c.291.025.584-.03.844-.159.259-.129.473-.326.617-.568a1.378 1.378 0 0 0-.101-1.562l-.324-.417c-.164-.215-.333-.425-.497-.64a.83.83 0 0 1-.054-.064c-.189-.245-.378-.485-.567-.73a4.337 4.337 0 0 1 1.503-1.255c2.063-1.027 4.796-.132 6.163 1.656 1.37 1.788 1.526 4.219.915 6.35a16.392 16.392 0 0 1-2.683 5.036c.102.137.209.27.311.407a46.559 46.559 0 0 1 4.8 8.017 18.709 18.709 0 0 1 1.678-9.04c1.312-2.647 3.634-4.823 5.695-7.071 2.475-2.699 7.21-1.264 7.448 2.307l.006.104a14.43 14.43 0 0 0-.873.455 2.007 2.007 0 0 0-.818.87 1.876 1.876 0 0 0-.157 1.156c.071.391.266.753.558 1.038.292.285.668.48 1.078.558l.042.009a18.679 18.679 0 0 1-.688 2.906 19.942 19.942 0 0 1-4.266 7.202 21.2 21.2 0 0 1-6.947 4.98c-.174.076-.343.151-.517.222a45.874 45.874 0 0 1 2.13 12.299 43.358 43.358 0 0 1-.396 7.361l.017-.086c.691-2.699 2.343-5.089 4.677-6.766 3.463-2.453 8.224-3.202 11.926-5.133a2.486 2.486 0 0 1 2.565.107c.373.248.662.592.835.992.174.399.223.837.142 1.262l-.019.09c-.547.184-1.081.4-1.6.646-.296.142-.587.294-.873.456a2.013 2.013 0 0 0-.817.869 1.886 1.886 0 0 0-.158 1.156c.072.392.266.754.558 1.039.292.285.668.479 1.078.558l.043.008.086.016a19.675 19.675 0 0 1-4.081 5.483 21.468 21.468 0 0 1-7.253 4.417 22.37 22.37 0 0 1-8.504 1.33l-.004-.001a46.717 46.717 0 0 1-3.865 9.276l-12.156-.537c-.038-.13-.07-.264-.103-.394 1.122.116 2.254.102 3.373-.042-.851-1.09-1.701-2.188-2.551-3.278a.83.83 0 0 1-.054-.064c-.431-.558-.867-1.112-1.298-1.669v-.001a18.31 18.31 0 0 1 .833-4.863v-.001ZM38.318 51.704c-.31.046-.628 0-.91-.131a1.501 1.501 0 0 1-.667-.603 1.392 1.392 0 0 1 .186-1.657l.06-.405-.053-.09a4.027 4.027 0 0 0-1.712-1.57 4.308 4.308 0 0 0-2.342-.408 4.23 4.23 0 0 0-2.188.891 3.894 3.894 0 0 0-1.302 1.892c-.91 2.948-2.159 5.936-2.204 8.958a11.012 11.012 0 0 0 .666 3.928c-3.587-5.701-5.84-12.068-6.607-18.667a42.42 42.42 0 0 1-.277-4.988c.005-1.366.074-2.729.206-4.088.727-7.378 3.288-14.488 7.472-20.744 2.206-1.456 3.888-3.519 4.82-5.91.339-.86.544-1.761.61-2.677-.26.06-.527.109-.79.152l-.25.039-.03.004c-.29.043-.586.005-.853-.109a1.5 1.5 0 0 1-.653-.53 1.388 1.388 0 0 1-.245-.783c0-.278.085-.55.243-.783l.297-.435c.15-.224.305-.444.455-.667a.721.721 0 0 0 .049-.068c.173-.255.346-.506.518-.761A4.368 4.368 0 0 0 31.236.329c-2.127-.904-4.796.15-6.043 2.014-1.252 1.865-1.25 4.3-.5 6.392a16.523 16.523 0 0 0 3.006 4.868c-.094.143-.192.282-.285.425a46.191 46.191 0 0 0-4.268 8.283c0-3.103-.775-6.162-2.264-8.924-1.482-2.566-3.94-4.601-6.144-6.723-2.647-2.55-7.279-.84-7.283 2.738v.104c.305.125.606.259.901.404.371.183.676.47.873.82a1.887 1.887 0 0 1-.257 2.213 2.097 2.097 0 0 1-1.04.62l-.042.011c.216.974.509 1.93.877 2.861a20.126 20.126 0 0 0 4.726 6.938 21.419 21.419 0 0 0 7.258 4.564c.179.064.353.13.531.19a45.762 45.762 0 0 0-1.325 12.4c.083 2.46.376 4.91.875 7.325l-.023-.085c-.866-2.654-2.67-4.942-5.108-6.48-3.617-2.244-8.417-2.713-12.238-4.424a2.499 2.499 0 0 0-2.554.258c-.355.27-.622.63-.769 1.038a2.153 2.153 0 0 0-.034 1.358 14.462 14.462 0 0 1 2.54.954c.371.184.675.47.873.82a1.887 1.887 0 0 1-.257 2.214 2.097 2.097 0 0 1-1.04.62l-.042.01-.085.022a19.868 19.868 0 0 0 4.43 5.234 21.66 21.66 0 0 0 7.527 3.982 22.406 22.406 0 0 0 8.574.83l.004-.001a47.026 47.026 0 0 0 4.462 9.03l12.098-1.248c.029-.132.053-.268.077-.4a14.565 14.565 0 0 1-3.369.157c.778-1.138 1.555-2.284 2.332-3.421a.702.702 0 0 0 .05-.068c.394-.582.792-1.16 1.187-1.742a18.389 18.389 0 0 0-1.148-4.806Z"/>
    <path fill="#A0616A" d="M205.461 47.45a4.327 4.327 0 0 1 1.627.818c.473.382.852.857 1.11 1.393a3.852 3.852 0 0 1-.03 3.41l6.492 6.849-3.424 4.758-9.025-9.793a4.115 4.115 0 0 1-1.946-2.209 3.857 3.857 0 0 1 .091-2.878 4.147 4.147 0 0 1 2.082-2.094 4.482 4.482 0 0 1 3.023-.254Z"/>
    <path fill="#CCC" d="M266.238 64.266a8.247 8.247 0 0 0-2.258-2.31 8.723 8.723 0 0 0-3.02-1.313 8.946 8.946 0 0 0-3.32-.113 8.782 8.782 0 0 0-3.111 1.103L233.178 74.18l-23.031-18.575-5.73 5.062 25.442 31.32 33.069-16.356c-.772.382 4.243-9.925 3.31-11.365Z"/>
    <path fill="#3F3D56" d="M223.942 105.984c.002 10.005-2.074 19.912-6.108 29.155-4.034 9.244-9.949 17.643-17.405 24.718-7.456 7.074-16.308 12.686-26.051 16.513a84.044 84.044 0 0 1-30.729 5.795c-44.344 0-80.293-34.108-80.293-76.181a72.613 72.613 0 0 1 4.095-24.082c5.34-15.168 15.57-28.36 29.244-37.709 13.674-9.349 30.099-14.383 46.954-14.391 14.536-.005 28.8 3.736 41.271 10.822 12.47 7.087 22.678 17.253 29.534 29.414a73.234 73.234 0 0 1 4.947 10.636v.005a72.544 72.544 0 0 1 4.541 25.305Z"/>
    <path fill="#fff" d="M134.864 54.585a28.06 28.06 0 0 0-11.713-3.056 28.21 28.21 0 0 0-11.937 2.138c-3.307 1.365-6.789 3.815-7.892 8.238 4.461-2.498 10.237 1.449 11.385 7.78l-.268.07c-.607 4.387.747 9.162 3.368 11.881.344-2.825 2.301-4.747 4.227-5.948 1.925-1.201 4.055-2.073 5.525-4.138 1.742-2.447 2.185-6.024 2.877-9.286.692-3.263 2.005-6.77 4.428-7.68Z"/>
    <path fill="#fff" d="M109.89 91.907c-1.235 1.76-2.886 2.865-4.367 4.24-1.476 1.38-2.881 3.243-3.176 5.634-.187 1.532.103 3.089.063 4.639-.04 1.549-.585 3.292-1.695 3.677-1.754.601-3.092-2.488-4.894-2.704-1.432-.169-2.72 1.968-2.306 3.822.415 1.854 2.364 2.675 3.484 1.464 1.012 1.613.299 4.537-1.222 5.032-.161 1.016-.322 2.028-.478 3.043-3.845-2.552-7.73-5.146-11-8.883-3.636-4.121-5.892-9.18-6.477-14.525-.424-4.296.205-9.21-1.873-12.516-1.664-2.645-4.519-3.229-7.088-3.064-.469.03-.942.08-1.41.136a73.417 73.417 0 0 1 5.75-12.486 5.69 5.69 0 0 0 1.44-.85c2.392-1.926 3.453-5.824 5.394-8.52.125-.173.254-.343.388-.508 1.985-2.459 4.643-3.724 7.213-4.9 5.687-2.62 11.54-5.274 17.544-4.91l-1.709.156a34692.427 34692.427 0 0 1-6.905 18.339c-1.133 3.013-2.302 6.221-2.128 9.594.103 1.998.834 4.131 2.226 4.817 1.298.635 2.717-.144 3.97-.914.531-.322 1.057-.644 1.588-.97 1.905-1.163 4.015-2.357 6.027-1.578 1.842.71 3.202 3.085 3.461 5.646a10.84 10.84 0 0 1-1.82 7.089Zm11.329 36.177-16.689-9.75.094-.231c-3.459 1.25-4.895 7.084-4.323 11.854.572 4.771 2.51 9.035 3.489 13.683a34.56 34.56 0 0 1-1.443 19.058 156.681 156.681 0 0 0 19.324-25.264 13.215 13.215 0 0 0 1.748-3.678c.353-1.385.299-3.05-.409-4.16a4.793 4.793 0 0 0-1.791-1.512Z"/>
    <path fill="#fff" d="M99.263 68.96c-.59 1.26-.818 2.94-.281 4.244.547 1.332 1.704 1.934 2.77 2.435l3.074 1.446c1.022.48 2.125.966 3.167.57 1.257-.477 2.129-2.347 1.904-4.083-.24-1.848-1.468-3.119-2.603-4.201l-4.766-4.544-.895 1.04a11.38 11.38 0 0 0-2.37 3.093Zm108.201 19.752 4.148.926c-.241 4.432-2.556 8.533-5.66 10.018-1.294.618-2.735.847-3.805 2.002-.968 1.05-1.459 2.683-1.909 4.245l-2.369 8.177c-.848 2.937-1.936 6.2-4.14 7.258-1.891.91-4.054-.203-5.509-2.069-1.454-1.867-2.342-4.376-3.202-6.823.053 2.667-1.254 5.282-3.105 6.209-1.856.927-4.113.089-5.353-1.981-.892-1.485-1.262-3.445-2.137-4.951-.874-1.507-2.707-2.37-3.662-.957-.629.94-.549 2.379-.861 3.572-.486 1.854-1.958 3.018-3.417 3.119-1.454.102-2.872-.694-4.09-1.773-2.512-2.235-4.363-5.781-5.081-9.722-.317-1.756-.406-3.669.143-5.315.549-1.647 1.873-2.916 3.189-2.603.866-1.736-.843-4.038-2.382-3.835-1.543.203-2.752 1.774-4.019 2.98-1.262 1.206-3.029 2.082-4.3.884.009 1.114-.946 1.85-1.771 1.757-.821-.09-1.552-.715-2.306-1.16-2.913-1.722-6.611-.58-8.681 2.679 1.294-5.223 3.19-11.216 7.164-12.443 1.624-.504 3.395-.089 4.929-.96 2.717-1.545 3.266-7.382.919-9.79.299 2.277.241 4.935-1.026 6.492-1.267 1.558-3.925.542-3.765-1.76-.365 1.587-2.185 1.828-3.024.61-.843-1.22-.772-3.213-.174-4.669.598-1.456 1.615-2.501 2.601-3.504 2.119-2.155 4.269-4.334 6.722-5.689 2.458-1.354 5.295-1.811 7.757-.465 1.298.71 2.44 1.896 3.765 2.522 1.325.63 3.007.55 3.885-.922.986-1.642.522-4.08.888-6.133.656-3.627 4.479-5.324 6.597-2.929-1.583-.385-3.22 1.393-3.417 3.547-.2 2.154.946 4.33 2.481 4.981 2.578 1.084 5.103-1.642 7.052-4.164 2.034-2.641 4.071-5.28 6.111-7.919a9.756 9.756 0 0 1 1.093-1.261 3.616 3.616 0 0 1 2.383-.947 3.629 3.629 0 0 1 2.421.854c2.061 1.595 3.029 4.867 4.72 7.119 2.453 3.271 6.124 4.067 9.541 4.702 2.547.47 5.096.942 7.646 1.418 1.7 3 3.183 6.107 4.438 9.298-4.318 1.74-8.301 4.994-11.428 9.374Zm8.234 50.923a75.217 75.217 0 0 1-6.646 10.551c-1.606-.652-3.332.512-4.836 1.604-1.57 1.143-3.457 2.256-5.067 1.215-1.646-1.067-2.177-4.051-1.655-6.417.522-2.361 1.825-4.24 3.087-6.026 1.338-1.896 2.77-3.864 4.63-4.601 1.865-.736 4.26.305 4.804 2.819l1.321-.043c-.741-.964-.353-2.962.642-3.313 1.146-.411 2.141 1.083 2.819 2.404.304.596.611 1.197.901 1.807Z"/>
    <path fill="#fff" d="M165.129 121.758c-2.838.169-5.086-3.146-6.58-6.407-1.494-3.261-2.857-6.99-5.417-8.65-1.464-.949-3.132-1.079-4.719-1.538-1.587-.46-3.248-1.411-4.007-3.348l-1.8-.69c-2.378 1.269-4.787 2.56-6.835 4.624-2.298 2.316-3.729 5.285-4.073 8.449-.344 3.419.926 7.231 3.299 8.515 1.875 1.015 4.057.376 5.957 1.305 2.373 1.16 3.781 4.532 4.315 7.862.533 3.329.398 6.789.779 10.156.382 3.367 1.433 6.871 3.609 8.596 2.723 2.16 6.719.365 7.941-3.565.599-1.928.579-4.104 1.027-6.105.789-3.525 2.919-6.14 4.609-9.031 1.689-2.891 3.019-6.818 1.895-10.173Zm-28.044-34.634c.265.231.512.48.739.745.235.385.356.823.348 1.268-.008.445-.144.88-.393 1.257.341-.018.676-.104.981-.251.305-.147.575-.353.792-.604.518-.56.974-1.169 1.36-1.817.289-.448.597-1.054.401-1.586-.134-.363-.451-.518-.674-.79-.352-.433-.439-1.12-.622-1.715-.393-1.282-1.337-2.226-2.361-2.36l.142.025c-.427.14-.726.784-.632 1.364.087.528.444.966.409 1.505-.051.774-.867 1.138-.918 1.913-.008.388.146.764.428 1.046Z"/>
    <path fill="#E6E6E6" d="m132.222 73.962.013-.003c.087-.075.168-.157.242-.245l-.255.248Z"/>
    <path fill="#fff" d="M133.074 77.597c.627-.383.978-1.441.77-2.328-.206-.88-.936-1.472-1.609-1.31a1.662 1.662 0 0 1-.704.4 1.727 1.727 0 0 1-.821.026c-.416-.102-.873-.363-1.233-.066-.207.222-.351.49-.421.779l-.401 1.167a.702.702 0 0 0-.047.442c.026.06.067.112.12.152.053.04.116.066.183.077l2.404.672c.584.163 1.215.321 1.759-.01Zm60.505 50.195-1.111-1.726a5.808 5.808 0 0 0-1.465-1.745 1.3 1.3 0 0 0-.451-.233 1.366 1.366 0 0 0-1.002.095 1.296 1.296 0 0 0-.394.313l.045.329c.844 1.005 1.738 2.122 1.952 3.614.085.588.055 1.197.129 1.787.074.591.285 1.204.687 1.458.583.37 1.268-.175 1.683-.84a2.783 2.783 0 0 0 .473-1.843 3.144 3.144 0 0 0-.546-1.209Z"/>
    <path fill="#E6E6E6" d="m210.068 105.813.321-2c.174-.732.196-1.49.064-2.23a1.19 1.19 0 0 0-.187-.454 1.266 1.266 0 0 0-.358-.349 1.342 1.342 0 0 0-.987-.191l-.189.279c-.036 1.285-.111 2.685-.959 3.957-.335.502-.771.949-1.115 1.447-.344.497-.599 1.094-.464 1.535.195.639 1.089.64 1.858.385a3.047 3.047 0 0 0 1.613-1.121 3.11 3.11 0 0 0 .403-1.258Z"/>
    <path fill="#fff" d="M199.391 128.541c.181-.494-.08-1.061-.135-1.607a3.385 3.385 0 0 1 .565-1.999c.393-.564.69-1.183.882-1.834a1.46 1.46 0 0 0-.042-.898c-.123-.261-.42-.381-.59-.174l.364.223a3.498 3.498 0 0 0-1.479.068c-.275.1-.521.261-.716.47a1.716 1.716 0 0 0-.406.73c-.06.422-.159.838-.294 1.244-.217.424-.638.565-.903.938a2.146 2.146 0 0 0 .037 2.129c.332.53.861.925 1.482 1.106.445.151 1.032.159 1.235-.396Zm10.35 2.963a4.8 4.8 0 0 0 .641 1.117c.496.473 1.169.182 1.77.067a3.211 3.211 0 0 1 1.617.173c.513.195.96.518 1.295.935a6.874 6.874 0 0 0-1.484-3.015 7.367 7.367 0 0 0-2.778-2.03c-1.417-.548-2.91-.601-4.383-.65l-.255.062c.649 1.791 2.686 1.751 3.577 3.341Z"/>
    <path fill="#E6E6E6" d="m165.906 135.168.003.008.074-.136-.077.128Z"/>
    <path fill="#fff" d="M164.335 138.051c-.342.59-.636 1.204-.88 1.836a15.304 15.304 0 0 0-.639 3.142c-.08.605-.104 1.379.296 1.674a.587.587 0 0 0 .741-.096c.222-.223.404-.479.538-.758a17.002 17.002 0 0 0 1.816-4.089c.382-1.506.379-3.28-.298-4.584l-1.574 2.875Z"/>
    <path fill="#E6E6E6" d="M149.188 61.228c.25.231.565.389.907.452.343.063.697.03 1.02-.095a6.402 6.402 0 0 0 1.812-1.136 4.13 4.13 0 0 0 1.099-1.137 2.21 2.21 0 0 0 .225-1.758c-.248-.688-.878-.92-1.434-1.076l-2.669-.75.644-.55c-.662-.338-1.395.288-1.808 1.062a5.485 5.485 0 0 0-.549 1.604c-.222 1.216-.005 2.664.753 3.384Zm15.706-5.003c.251.263.598.425.97.453.372.03.741-.078 1.033-.298.252-.179.461-.407.613-.667a2.04 2.04 0 0 0 .273-.847c.063-.664-.283-1.402-.777-1.459l.113-.622c-.952-.163-2.123-.195-2.633.901a2.45 2.45 0 0 0-.153 1.322c.071.445.265.865.561 1.217Z"/>
    <path fill="#EE24FF" d="M162.796 23.169c-5.58-.597-11.183.933-15.574 4.255s-7.212 8.163-7.841 13.458c-1.311 11.026 4.811 34.97 15.974 44.881 5.255-18.99 23.673-30.254 26.11-40.377 2.604-10.818-7.048-20.973-18.669-22.217Z"/>
    <path fill="#fff" d="M158.937 47.681c3.814 0 6.906-2.933 6.906-6.552 0-3.619-3.092-6.552-6.906-6.552-3.814 0-6.906 2.933-6.906 6.552 0 3.619 3.092 6.552 6.906 6.552Z"/>
    <path fill="#EE24FF" d="M151.675 95.21c2.498 0 4.524-1.92 4.524-4.291 0-2.37-2.026-4.292-4.524-4.292s-4.523 1.922-4.523 4.292 2.025 4.292 4.523 4.292Z"/>
    <path fill="#231F20" d="M164.651 36.434a6.788 6.788 0 0 1 1.994 1.72c.54.691.93 1.477 1.15 2.312a6.23 6.23 0 0 1 .129 2.553 6.342 6.342 0 0 1-.911 2.407 6.69 6.69 0 0 1-1.812 1.892 7.075 7.075 0 0 1-2.437 1.09 7.227 7.227 0 0 1-5.227-.74 7.24 7.24 0 0 0 4.725-.604c1.45-.727 2.58-1.92 3.188-3.364a6.243 6.243 0 0 0 .129-4.523c-.525-1.474-1.585-2.723-2.991-3.523a7.138 7.138 0 0 1 2.063.78Z" opacity=".2"/>
    <path fill="#231F20" d="M181.492 45.407c-2.437 10.124-20.855 21.387-26.11 40.377a28.34 28.34 0 0 1-2.917-3.032c5.906-17.85 23.177-28.696 25.531-38.477 2.108-8.755-3.812-17.075-12.306-20.59 10.282 2.453 18.188 11.809 15.802 21.722Z" opacity=".2"/>
    <path fill="#EE24FF" d="M98.08 48.736c-4.19-.449-8.398.7-11.695 3.195-3.298 2.495-5.416 6.13-5.89 10.106-.984 8.28 3.614 26.261 11.997 33.704 3.947-14.26 17.777-22.719 19.607-30.322 1.956-8.123-5.292-15.75-14.019-16.683Z"/>
    <path fill="#fff" d="M95.182 67.143c2.864 0 5.186-2.203 5.186-4.92 0-2.718-2.322-4.92-5.186-4.92-2.865 0-5.187 2.202-5.187 4.92 0 2.717 2.322 4.92 5.187 4.92Z"/>
    <path fill="#EE24FF" d="M89.729 102.836c1.876 0 3.396-1.443 3.396-3.223 0-1.78-1.52-3.222-3.396-3.222s-3.397 1.442-3.397 3.222 1.52 3.223 3.397 3.223Z"/>
    <path fill="#231F20" d="M99.473 58.697a5.102 5.102 0 0 1 1.497 1.291c.406.52.699 1.11.864 1.737a4.7 4.7 0 0 1-.587 3.724 5.022 5.022 0 0 1-1.36 1.422 5.314 5.314 0 0 1-1.831.819 5.458 5.458 0 0 1-2.021.091 5.368 5.368 0 0 1-1.905-.648 5.434 5.434 0 0 0 3.55-.453 5.023 5.023 0 0 0 2.393-2.527 4.69 4.69 0 0 0 .097-3.396 4.982 4.982 0 0 0-2.246-2.646 5.375 5.375 0 0 1 1.549.586Z" opacity=".2"/>
    <path fill="#231F20" d="M112.12 65.435c-1.83 7.603-15.661 16.062-19.608 30.322a21.308 21.308 0 0 1-2.19-2.277c4.435-13.404 17.405-21.55 19.173-28.895 1.582-6.574-2.863-12.822-9.242-15.462 7.722 1.842 13.659 8.868 11.867 16.312Z" opacity=".2"/>
    <path fill="#A0616A" d="M260.448 226.988h-5.694l-2.709-20.839h8.404l-.001 20.839Z"/>
    <path fill="#2F2E41" d="M263.511 237.246h-4.04l-.722-3.619-1.847 3.619h-10.716a2.504 2.504 0 0 1-1.428-.444 2.294 2.294 0 0 1-.872-1.161 2.178 2.178 0 0 1 .022-1.426c.168-.461.486-.858.909-1.135l8.558-5.608v-3.659l9.001.51 1.135 12.923Z"/>
    <path fill="#A0616A" d="M238.393 226.988h-5.694l-2.709-20.839h8.404l-.001 20.839Z"/>
    <path fill="#2F2E41" d="M241.456 237.246h-4.041l-.721-3.619-1.847 3.619h-10.716a2.504 2.504 0 0 1-1.428-.444 2.289 2.289 0 0 1-.872-1.161 2.178 2.178 0 0 1 .022-1.426c.168-.461.486-.858.909-1.135l8.558-5.608v-3.659l9.001.51 1.135 12.923Zm-24.696-65.278c1.089 1.551 12.944 44.184 12.944 44.184l10.511 1.137-1.247-10.727-1.907-18.982-2.953-12.67s10.428-22.519 11.087-24.312l.469-1.288 3.258 28.055a7.515 7.515 0 0 1 .496 3.133c-.098 1.752 1.754 28.116 1.754 28.116l.891 9.455 9.005 1.187 3.654-16.359c3.051-5.314 1.302-24.198.055-25.956-1.248-1.757-.752-13.999-.752-13.999 1.593-.532 11.094-31.27 6.342-31.089.305-1.639.545-3.102.545-3.102l-8.249-6.311-20.644-5.092-5.209-2.373s-9.302 16.32-9.209 17.131a4.33 4.33 0 0 1-.703 2.942l-9.392 29.823s-1.847 5.531-.746 7.097Z"/>
    <path fill="#CCC" d="m268.624 65.252-3.284-6.616-11.178.407-3.646 6.883s-10.419 11.808-10.757 15.648c-.424 4.829 3.101 28.496-.424 26.962 0 0-8.311 9.256-3.393 9.256s27.163 13.249 28.623 14.739c1.459 1.49 7.975 2.456 7.429-.654-.547-3.111-3.37-19.934-3.37-19.934l7.643-26.452c2.199-5.711 2.884-12.117-2.088-15.954l-5.555-4.285Z"/>
    <path fill="#EE24FF" d="M227.22 45.78a12.834 12.834 0 0 0-4.701-.82 12.815 12.815 0 0 0-4.673.951 12.28 12.28 0 0 0-3.934 2.575 11.577 11.577 0 0 0-2.596 3.808c-2.496 5.966-2.91 20.213 1.735 27.353 5.972-9.843 18.055-13.477 21.035-18.777 3.185-5.664-.578-12.722-6.866-15.09Z"/>
    <path fill="#fff" d="M222.192 59.039c2.207 0 3.995-1.697 3.995-3.79 0-2.094-1.788-3.79-3.995-3.79-2.206 0-3.995 1.696-3.995 3.79 0 2.093 1.789 3.79 3.995 3.79Z"/>
    <path fill="#EE24FF" d="M210.172 84.478c1.445 0 2.617-1.112 2.617-2.483s-1.172-2.483-2.617-2.483-2.616 1.112-2.616 2.483 1.171 2.483 2.616 2.483Z"/>
    <path fill="#231F20" d="M226.133 53.451a3.685 3.685 0 0 1 1.107 2.703 3.701 3.701 0 0 1-1.23 2.653 4.114 4.114 0 0 1-2.847 1.054 4.097 4.097 0 0 1-2.798-1.164c.839.419 1.808.54 2.734.344a4.016 4.016 0 0 0 2.317-1.42 3.649 3.649 0 0 0 .796-2.505 3.701 3.701 0 0 0-1.106-2.398c.382.19.729.438 1.027.733Z" opacity=".2"/>
    <path fill="#231F20" d="M234.098 60.885c-2.98 5.3-15.063 8.935-21.035 18.778a15.649 15.649 0 0 1-1.143-2.113c6.153-9.113 17.529-12.68 20.408-17.8 2.577-4.583.604-10.08-3.575-13.265 5.347 2.85 8.263 9.21 5.345 14.4Z" opacity=".2"/>
    <path fill="#A0616A" d="M208.993 81.14a4.472 4.472 0 0 1 1.841.027 4.35 4.35 0 0 1 1.656.763 4.08 4.08 0 0 1 1.161 1.356c.277.527.43 1.105.446 1.694l9.064 3.3-.771 5.716-12.73-4.832a4.388 4.388 0 0 1-2.792-1.128 3.97 3.97 0 0 1-1.298-2.603 3.907 3.907 0 0 1 .852-2.763 4.308 4.308 0 0 1 2.571-1.53Z"/>
    <path fill="#CCC" d="M272.319 69.364a8.786 8.786 0 0 0-3.118-1.085 8.944 8.944 0 0 0-3.319.133 8.712 8.712 0 0 0-3.011 1.33 8.227 8.227 0 0 0-2.243 2.325L247.619 92.45l-29.412-6.615-2.68 6.98 37.666 16.928 19.076-28.828c2.856-3.809 4.255-9.116.05-11.552Z"/>
    <path fill="#2F2E41" d="M272.805 44.384c.001 1.965-.506 3.9-1.478 5.634a12.242 12.242 0 0 1-4.092 4.317 13.082 13.082 0 0 1-5.749 1.989c-2.059.206-4.14-.07-6.06-.805a12.647 12.647 0 0 1-4.954-3.41 11.762 11.762 0 0 1-2.686-5.216 11.408 11.408 0 0 1 .208-5.802 11.87 11.87 0 0 1 3.055-5.03l.061-.058a8.741 8.741 0 0 1 .31-.298l.002-.002.001-.001V35.7c.132-.115.263-.23.4-.34a12.962 12.962 0 0 1 6.483-2.847 13.264 13.264 0 0 1 7.075.94c2.214.953 4.091 2.49 5.408 4.429a11.551 11.551 0 0 1 2.016 6.502Z"/>
    <path fill="#9E616A" d="M257.04 57.225c5.858 0 10.607-4.506 10.607-10.064s-4.749-10.064-10.607-10.064-10.607 4.506-10.607 10.064 4.749 10.064 10.607 10.064Z"/>
    <path fill="#2F2E41" d="m268.303 50.031-1.757-.294a4.99 4.99 0 0 1-2.591-1.29 4.578 4.578 0 0 1-1.356-2.46l-1.714 2.727-.075.023c-4.086 1.287-8.337.902-12.993-1.175a36.865 36.865 0 0 1-3.868-2.023l-.092-.055-.007-.102c-.237-3.274.537-6.009 2.181-7.701a6.558 6.558 0 0 1 2.247-1.476 6.847 6.847 0 0 1 2.687-.476.407.407 0 0 0 .175-.091l.071-.049v-.017l.122-.054c.262-.117.528-.229.795-.33a12.569 12.569 0 0 1 6.594-.559 12.203 12.203 0 0 1 5.896 2.855c3.267 2.96 4.766 7.926 3.729 12.359l-.044.188Z"/>
    <path fill="#2F2E41" d="M290.675 58.605c-3.609-1.767 1.033-8.183.1-11.934-.933-3.75-7.65-4.957-8.078-8.79-.428-3.832-1.435-7.785-4.1-10.693-1.703-1.858-4.213-3.23-6.797-2.997a6.353 6.353 0 0 0-2.481.752 6.006 6.006 0 0 0-1.925 1.664 5.65 5.65 0 0 0-1.02 2.274 5.51 5.51 0 0 0 .07 2.47c-.736-.99-2.64-.775-3.111.35-.419 1 .507 2.212 1.596 2.3 1.425 1.67 3.057 3.443 5.29 3.78a2.54 2.54 0 0 0 1.082-.001 2.47 2.47 0 0 0 .972-.45c.525-.478.566-1.435-.057-1.792 2.806 1.057 4.451 3.936 4.867 6.773.417 2.838-.159 5.709-.539 8.551-.38 2.842-.543 5.832.631 8.471 1.388 3.119 4.583 5.353 8.07 6.07 3.486.717 7.2.016 10.356-1.562 3.156-1.578 5.788-3.988 7.938-6.689-3.704 2.495-8.828 3.43-12.864 1.453Z"/>
    <path fill="#FD6584" d="M267.852 49.751s-3.142-11.127-16.611-13.696a1.685 1.685 0 0 1-.131-.052 1.865 1.865 0 0 0-.142-.072 9.947 9.947 0 0 1 .452-.226l.002-.002.001-.001V35.7c.132-.115.263-.23.4-.34l.385.014s13.514-2.031 15.644 14.377Z"/>
    <path fill="#000" d="m260.817 85.457-7.607 8.362-12.569-3.522 13.703 5.992 6.473-10.832Z" opacity=".2"/>
    <path fill="#CACACA" d="M306.476 237.876 189.52 238a.517.517 0 0 1-.356-.141.467.467 0 0 1-.147-.338c0-.127.053-.249.147-.338a.517.517 0 0 1 .356-.141l116.956-.124a.52.52 0 0 1 .358.14.47.47 0 0 1 .147.339.47.47 0 0 1-.147.339.52.52 0 0 1-.358.14Z"/>
    <path fill="#EE24FF" d="M311.61 163.412c-5.476 0-11.479-.196-18.007-.589-33.768-2.034-77.506-9.108-123.16-19.917-45.653-10.808-87.767-24.062-118.583-37.318-15.011-6.457-26.532-12.57-34.243-18.168C9.454 81.493 5.883 76.327 7.003 72.066c2.184-8.301 21.517-10.117 37.352-10.18l.005 1.208c-21.745.085-34.573 3.375-36.122 9.265-1.973 7.5 14.118 19.212 44.148 32.13 30.748 13.226 72.784 26.454 118.365 37.246 45.581 10.792 89.239 17.853 122.932 19.883 32.904 1.983 52.909-1.182 54.882-8.683 1.638-6.228-9.161-15.403-30.407-25.835l.585-1.072c15.438 7.58 33.357 18.452 31.056 27.199-1.12 4.261-6.831 7.23-16.972 8.822-5.78.908-12.881 1.363-21.217 1.363Z"/>
  </g>
  <defs>
    <clipPath id="a">
      <path fill="#fff" d="M0 0h350v238H0z"/>
    </clipPath>
  </defs>
</svg>
