<svg xmlns="http://www.w3.org/2000/svg" width="36" height="28" fill="none" viewBox="0 0 36 28">
  <path fill="#323238" d="M18 20.25a5 5 0 1 0 0-10 5 5 0 0 0 0 10Z"/>
  <path fill="#323238" d="M31.75 5.25h-4.61c-.234 0-.524-.152-.75-.39l-2.027-3.2a1.491 1.491 0 0 0-.107-.144C23.556.7 22.609.25 21.594.25h-7.188c-1.015 0-1.962.45-2.662 1.266a1.26 1.26 0 0 0-.107.145L9.611 4.864c-.174.19-.417.39-.674.39V4.63a1.25 1.25 0 0 0-1.25-1.25H5.813a1.25 1.25 0 0 0-1.25 1.25v.625H4.25A3.754 3.754 0 0 0 .5 9.005V24a3.754 3.754 0 0 0 3.75 3.75h27.5A3.754 3.754 0 0 0 35.5 24V9a3.754 3.754 0 0 0-3.75-3.75ZM18 22.75a7.5 7.5 0 1 1 7.5-7.5 7.509 7.509 0 0 1-7.5 7.5Z"/>
</svg>
